<?xml version="1.0" encoding="UTF-8" standalone="no"?>
<svg
   class="footer-certificates__gassafe icon"
   viewBox="0 0 70 95"
   version="1.1"
   id="svg12"
   sodipodi:docname="gassafe.svg"
   inkscape:version="1.4.2 (ebf0e940, 2025-05-08)"
   xmlns:inkscape="http://www.inkscape.org/namespaces/inkscape"
   xmlns:sodipodi="http://sodipodi.sourceforge.net/DTD/sodipodi-0.dtd"
   xmlns="http://www.w3.org/2000/svg"
   xmlns:svg="http://www.w3.org/2000/svg">
  <defs
     id="defs12" />
  <sodipodi:namedview
     id="namedview12"
     pagecolor="#ffffff"
     bordercolor="#000000"
     borderopacity="0.25"
     inkscape:showpageshadow="2"
     inkscape:pageopacity="0.0"
     inkscape:pagecheckerboard="0"
     inkscape:deskcolor="#d1d1d1"
     inkscape:zoom="8.3578947"
     inkscape:cx="34.996851"
     inkscape:cy="85.787154"
     inkscape:window-width="1920"
     inkscape:window-height="943"
     inkscape:window-x="0"
     inkscape:window-y="25"
     inkscape:window-maximized="0"
     inkscape:current-layer="svg12" />
  <path
     d="M3.113 79.833S0 79.833 0 82.695v8.525s0 2.863 3.113 2.863h63.641s3.113 0 3.113-2.863v-8.525s0-2.862-3.113-2.862H3.113z"
     fill="#FFED00"
     id="path1" />
  <path
     d="M3.147 0S.034 0 .034 3.079v69.3s0 3.078 3.113 3.078h63.641s3.113 0 3.113-3.078v-69.3S69.901 0 66.788 0H3.147z"
     fill="#000"
     id="path2" />
  <path
     d="M63.676 8.466c0-1.272-1.05-2.309-2.335-2.309-.643 0-1.218.268-1.658.67l-52.78 52.2a2.29 2.29 0 00-.644 1.606c0 1.272 1.083 2.343 2.369 2.376h52.747c1.286 0 2.334-1.037 2.334-2.309V8.466"
     fill="#FFED00"
     id="path3" />
  <path
     fill-rule="evenodd"
     clip-rule="evenodd"
     d="M34.037 66.89c-.101.202-.27.336-.507.436.135 0 .236.067.304.167a.61.61 0 01.17.235l.1.3c0 .05.01.101.018.151.008.05.017.1.017.15v.235c.033.067.033.167.033.268 0 .1 0 .2.034.267l.102.201h-.914a1.06 1.06 0 01-.101-.468 3.727 3.727 0 01-.033-.267c-.009-.093-.017-.18-.035-.269-.034-.2-.102-.368-.203-.468-.102-.134-.27-.167-.508-.167h-.913v1.64h-.913v-4.184h2.266c.17 0 .373.034.508.1a.82.82 0 01.406.235c.101.1.17.234.237.368a.918.918 0 01.101.435c0 .234-.067.469-.169.636zm-.913-.032a.66.66 0 00.169-.469c0-.2-.068-.335-.17-.435-.1-.1-.27-.134-.473-.134h-1.015v1.171h1.015c.203 0 .372-.033.474-.133z"
     fill="#FFED00"
     id="path4" />
  <path
     d="M38.266 65.084v.803h-2.233v.87h2.064v.736h-2.064v1.004h2.3v.77H35.12v-4.183h3.146zm3.181 4.149c-.203.067-.406.134-.61.134-.338 0-.609-.067-.88-.167-.27-.1-.473-.268-.642-.469a2.288 2.288 0 01-.541-1.54c0-.3.033-.601.135-.869.102-.268.237-.502.406-.703.17-.2.406-.368.643-.468.27-.1.541-.167.88-.167.203 0 .44.033.642.1.203.067.373.167.542.268.169.134.304.267.406.468.101.168.169.402.203.636h-.88a1.182 1.182 0 00-.304-.535c-.17-.1-.339-.168-.576-.168-.203 0-.372.034-.541.134a.811.811 0 00-.338.335c-.102.134-.17.3-.203.468-.034.168-.068.335-.068.536 0 .167.034.334.068.502.033.167.101.3.203.434.101.134.203.235.338.335.135.067.338.134.541.134.305 0 .542-.067.71-.234.17-.168.272-.368.305-.67h-.947v-.669h1.76V69.3h-.576l-.101-.468c-.203.167-.372.334-.575.401zm2.165-4.149h.914v4.183h-.914v-4.183zm2.538 3.179c.067.1.135.167.203.234.067.067.169.1.304.134.102.034.237.034.339.034.067 0 .169 0 .27-.034.102 0 .17-.033.27-.067.069-.033.136-.1.204-.167.067-.067.067-.168.067-.268s-.033-.2-.101-.268a.74.74 0 00-.27-.167c-.102-.033-.237-.1-.407-.134-.135-.033-.304-.067-.44-.134-.169-.033-.304-.1-.473-.133a2.523 2.523 0 01-.406-.235c-.102-.1-.203-.2-.27-.334a1.107 1.107 0 01-.102-.502c0-.201.033-.402.135-.57.101-.166.203-.3.372-.4.135-.101.305-.168.508-.235.203-.067.372-.067.575-.067.237 0 .44.034.643.067.203.034.372.134.541.234.17.1.27.235.372.402.102.167.136.368.136.602h-.914a.662.662 0 00-.068-.3.886.886 0 00-.169-.202 2.398 2.398 0 00-.27-.1c-.102-.034-.203-.034-.305-.034-.068 0-.135 0-.237.034a.477.477 0 00-.203.067c-.068.033-.101.1-.135.134a.479.479 0 00-.068.234c0 .067 0 .134.034.2.034.068.101.101.203.135.101.033.203.1.372.133.17.034.372.1.643.168.068.033.203.033.338.1.136.034.271.1.406.2.136.101.271.202.373.369.101.134.135.335.135.569 0 .2-.034.368-.102.535a1.014 1.014 0 01-.338.435c-.135.134-.338.201-.541.268s-.474.1-.745.1c-.237 0-.473-.033-.676-.1-.203-.067-.406-.134-.576-.268a1.368 1.368 0 01-.406-.468c-.101-.201-.135-.402-.135-.67h.914a.709.709 0 000 .469zm2.808-2.376v-.803h3.45v.803h-1.251v3.38h-.947v-3.38h-1.252zm7.139-.803v.803h-2.233v.87h2.064v.736h-2.064v1.004h2.267v.77h-3.18v-4.183h3.146z"
     fill="#FFED00"
     id="path5" />
  <path
     fill-rule="evenodd"
     clip-rule="evenodd"
     d="M60.292 66.89c-.101.202-.27.336-.507.436.135 0 .237.067.304.167a.6.6 0 01.17.235l.1.3c0 .05.01.101.018.151.008.05.017.1.017.15v.235c.034.067.034.167.034.268 0 .1 0 .2.033.267l.102.201h-.914a1.06 1.06 0 01-.101-.468 3.678 3.678 0 01-.033-.267 2.614 2.614 0 00-.035-.269c-.034-.2-.101-.368-.203-.468-.101-.134-.27-.167-.507-.167h-.914v1.64h-.913v-4.184h2.267c.203 0 .372.034.507.1.17.034.305.135.406.235.102.1.17.234.237.368a.919.919 0 01.101.435c0 .234-.067.469-.169.636zm-.913-.032a.66.66 0 00.169-.469c0-.2-.068-.335-.17-.435-.1-.1-.27-.134-.473-.134H57.89v1.171h1.015c.203 0 .372-.033.474-.133z"
     fill="#FFED00"
     id="path6" />
  <path
     fill-rule="evenodd"
     clip-rule="evenodd"
     d="M41.965 59.83l.023.034v-.034h-.023zm-.281-1.07c.032.478.126.835.281 1.07h-3.36c-.017-.1-.043-.192-.068-.284a2.79 2.79 0 01-.068-.285 2.919 2.919 0 01-.067-.568 3.955 3.955 0 01-1.827 1.104 6.807 6.807 0 01-2.166.335 5.901 5.901 0 01-1.59-.201c-.474-.134-.913-.335-1.286-.636a3.45 3.45 0 01-.845-1.104c-.203-.435-.305-.97-.305-1.573 0-.67.135-1.205.372-1.64.237-.435.542-.77.914-1.037a4.981 4.981 0 011.285-.569 10.18 10.18 0 011.455-.301l.18-.024c.44-.058.858-.114 1.275-.143.474-.034.88-.1 1.252-.201.372-.1.677-.234.88-.402.203-.167.304-.435.304-.77 0-.367-.067-.635-.169-.836-.135-.2-.27-.368-.474-.468a1.641 1.641 0 00-.676-.235 5.683 5.683 0 00-.812-.066c-.643 0-1.15.133-1.523.401-.372.268-.575.736-.643 1.372h-3.248c.034-.736.237-1.372.575-1.874a3.996 3.996 0 011.286-1.205c.508-.3 1.117-.501 1.76-.635a9.524 9.524 0 011.962-.201c.609 0 1.218.067 1.827.134a6.21 6.21 0 011.692.502c.507.234.947.569 1.251 1.004.305.435.474 1.003.474 1.706v6.124c0 .502.034 1.037.102 1.506zm-3.403-2.84c.028-.248.053-.464.053-.607v-1.104c-.135.1-.305.2-.508.267a4 4 0 01-.676.168c-.237.033-.474.067-.744.1l-.39.05c-.127.017-.253.034-.389.05a5.44 5.44 0 00-.71.168 1.75 1.75 0 00-.61.3 1.255 1.255 0 00-.439.503c-.102.167-.17.435-.17.736s.069.535.17.736c.101.201.27.368.44.469.169.1.406.2.643.234.236.033.473.067.744.067.643 0 1.15-.134 1.489-.335.338-.234.609-.468.778-.77.169-.3.27-.602.304-.903l.015-.13z"
     fill="#000"
     id="path8" />
  <path
     d="M42.123 50.26v-2.142h1.963v-.903c0-1.037.338-1.907.98-2.577.644-.669 1.659-1.003 2.978-1.003.305 0 .575 0 .88.033.304.033.575.033.846.067v2.41a13.266 13.266 0 00-1.184-.068c-.44 0-.779.1-.948.301-.203.201-.27.536-.27 1.038v.703h2.266v2.141h-2.266v9.604H44.12V50.26h-1.997z"
     fill="#000"
     id="path9" />
  <path
     fill-rule="evenodd"
     clip-rule="evenodd"
     d="M59.852 49.925c.474.67.846 1.406 1.05 2.242.202.837.27 1.707.202 2.644h-8.56c.068 1.037.339 1.807.812 2.275.474.469 1.185.703 2.098.703.643 0 1.218-.167 1.692-.502.473-.334.778-.67.88-1.037H60.9c-.44 1.405-1.15 2.41-2.097 3.011-.948.603-2.098.904-3.451.904-.948 0-1.794-.134-2.538-.435a5.374 5.374 0 01-1.895-1.272 5.013 5.013 0 01-1.218-1.94c-.304-.77-.44-1.607-.44-2.51 0-.87.136-1.673.44-2.443.305-.77.71-1.405 1.252-1.974a6.502 6.502 0 011.929-1.305 6.488 6.488 0 012.47-.469c1.015 0 1.894.168 2.639.57a4.93 4.93 0 011.86 1.538zm-7.308 2.811h5.312c-.135-.836-.406-1.438-.846-1.84-.406-.435-.98-.636-1.793-.636-.507 0-.947.1-1.285.268-.339.167-.61.368-.813.636-.203.234-.372.502-.44.803l-.037.163c-.053.226-.098.416-.098.606zM37.048 42.53l1.59 4.183h-.947l-.304-.937h-1.59l-.339.937h-.947l1.59-4.183h.947zm-1.015 2.577h1.083l-.541-1.54-.542 1.54z"
     fill="#000"
     id="path10" />
  <path
     d="M32.988 46.68a1.34 1.34 0 01-.609.133 2.42 2.42 0 01-.88-.167c-.27-.1-.473-.267-.642-.468a2.4 2.4 0 01-.406-.703c-.102-.268-.136-.535-.136-.87 0-.301.034-.602.136-.87.101-.268.237-.502.406-.703.169-.2.406-.368.643-.468.27-.1.541-.167.88-.167.202 0 .44.033.642.1.203.067.372.167.541.301.17.134.305.268.406.468.102.168.17.402.203.636h-.88a1.18 1.18 0 00-.304-.535 1.059 1.059 0 00-.575-.167c-.203 0-.372.033-.541.133-.136.067-.27.201-.372.335a1.15 1.15 0 00-.203.468c-.034.168-.068.335-.068.536 0 .167.034.335.068.502.034.167.101.301.203.435.101.134.203.234.372.334.135.067.338.134.541.134.305 0 .542-.067.71-.234.17-.167.271-.368.305-.67h-.947v-.702h1.793v2.276h-.609l-.102-.469c-.203.167-.372.335-.575.402zm6.564-1.004c.034.1.135.167.203.234.101.067.17.1.304.134.102.033.237.033.373.033.067 0 .169 0 .27-.033.102 0 .17-.034.271-.067a.34.34 0 00.203-.167c.068-.067.068-.168.068-.268s-.034-.2-.102-.268a.738.738 0 00-.27-.167c-.136-.033-.271-.1-.407-.134a10.971 10.971 0 00-.473-.1c-.17-.034-.305-.1-.474-.134a2.609 2.609 0 01-.406-.234 1.3 1.3 0 01-.27-.335 1.108 1.108 0 01-.102-.502c0-.2.034-.401.135-.569.102-.167.203-.301.372-.401.136-.1.305-.168.508-.235.203-.066.372-.066.575-.066.237 0 .44.033.643.066.203.034.372.134.541.235.17.1.271.234.372.435.102.167.136.368.136.635h-.914a.661.661 0 00-.067-.3.89.89 0 00-.17-.202c-.067-.033-.169-.066-.27-.1-.102-.033-.203-.033-.305-.033-.067 0-.135 0-.236.033-.068 0-.136.034-.204.067-.067.034-.101.1-.135.134-.034.067-.068.134-.068.234 0 .067 0 .134.034.2.034.068.102.101.203.135.102.033.237.1.373.134.169.033.372.1.642.167.068 0 .203.033.339.1.135.034.27.1.406.201.135.1.27.2.372.368.101.168.135.335.135.569 0 .2-.034.368-.101.535-.068.168-.203.302-.339.435-.135.134-.338.201-.541.268s-.474.1-.744.1c-.237 0-.474-.033-.677-.1-.203-.067-.406-.134-.575-.268a1.366 1.366 0 01-.406-.468c-.102-.2-.136-.402-.136-.67h.914c-.102.168-.068.302 0 .369z"
     fill="#000"
     id="path11" />
  <path
     fill-rule="evenodd"
     clip-rule="evenodd"
     d="M61.07 44.873c0-.67-.541-1.205-1.218-1.205-.676 0-1.218.502-1.218 1.205 0 .669.542 1.204 1.218 1.204.643 0 1.218-.502 1.218-1.204zm-.203 0c0 .602-.44 1.037-1.015 1.037a1.02 1.02 0 01-1.015-1.037c0-.603.44-1.038 1.015-1.038a1.02 1.02 0 011.015 1.038zm-1.488-.703h.541c.338 0 .508.134.508.401 0 .268-.17.369-.373.402l.406.636h-.236l-.407-.602h-.236v.602h-.237v-1.44h.034zm.473.636h-.236v-.435h.304c.135 0 .304 0 .304.2 0 .235-.169.235-.372.235z"
     fill="#000"
     id="path12" />
  <path
     style="opacity:0.95;fill:#000000;stroke-width:0.119647"
     d="m 22.977944,60.177328 c -2.352806,-0.369358 -3.777653,-1.57492 -4.0593,-3.434569 l -0.07701,-0.508502 h 1.491584 1.491584 l 0.08017,0.427317 c 0.100533,0.535885 0.542331,1.06904 1.137436,1.37264 0.628612,0.320694 2.005217,0.318646 2.716197,-0.004 0.929123,-0.421694 1.10948,-1.510973 0.344625,-2.08139 -0.445622,-0.332338 -1.04536,-0.53354 -3.062267,-1.027339 -1.585041,-0.388066 -2.644106,-0.81039 -3.10105,-1.236607 -1.292509,-1.205593 -1.00546,-3.654493 0.548936,-4.683143 1.132643,-0.749548 3.43853,-1.099995 5.240386,-0.796431 1.730512,0.291545 3.088824,1.296734 3.465282,2.564407 0.286887,0.966053 0.355129,0.917988 -1.30336,0.917988 h -1.482276 l -0.07497,-0.399631 c -0.147326,-0.785314 -0.887308,-1.155785 -2.308579,-1.155785 -1.319636,0 -1.711091,0.260321 -1.711091,1.137889 0,0.750056 0.456286,0.995812 2.883489,1.553049 2.139068,0.491088 3.311655,0.988801 3.872081,1.643532 1.268963,1.482497 0.62125,4.098195 -1.251792,5.055188 -1.23106,0.628985 -3.259106,0.903617 -4.840066,0.655428 z"
     id="path13" />
  <text
     xml:space="preserve"
     style="font-style:normal;font-variant:normal;font-weight:normal;font-stretch:normal;font-size:10.3764px;font-family:Ayuthaya;-inkscape-font-specification:Ayuthaya;text-align:start;writing-mode:lr-tb;direction:ltr;text-anchor:start;opacity:0.95;fill:#000000;stroke-width:0.54909"
     x="17.103336"
     y="83.737846"
     id="text13"
     transform="scale(0.91960383,1.0874248)"><tspan
       sodipodi:role="line"
       id="tspan13"
       x="17.103336"
       y="83.737846"
       style="font-style:normal;font-variant:normal;font-weight:normal;font-stretch:normal;font-family:Ayuthaya;-inkscape-font-specification:Ayuthaya;stroke-width:0.54909">5814955</tspan></text>
</svg>
