<?xml version="1.0" encoding="UTF-8"?> <svg xmlns="http://www.w3.org/2000/svg" id="Layer_1" data-name="Layer 1" viewBox="0 0 243.56 85.07"><defs><style> .cls-1 { fill-rule: evenodd; } </style></defs><path class="cls-1" d="M240.21,65.89c1.85,0,3.35-1.5,3.35-3.35s-1.5-3.35-3.35-3.35h-22.51v-13.56h16.91c1.85,.06,3.41-1.39,3.47-3.24,.06-1.85-1.39-3.41-3.24-3.47-.08,0-.16,0-.23,0h-16.91v-13.02h21.33c1.85,0,3.35-1.5,3.35-3.35s-1.5-3.35-3.35-3.35h-24.77c-1.87-.02-3.41,1.49-3.42,3.37,0,.02,0,.04,0,.06V62.47c0,1.89,1.54,3.42,3.42,3.42h25.94Z"></path><path class="cls-1" d="M138.75,65.89c1.88-.03,3.39-1.55,3.42-3.42V22.34c0-1.89-1.54-3.41-3.42-3.42-1.87-.02-3.4,1.49-3.42,3.36,0,.02,0,.04,0,.06v16.57h-22.56V22.34c.02-1.87-1.49-3.4-3.36-3.42-.02,0-.04,0-.06,0-1.89,0-3.41,1.53-3.42,3.42V62.47c.03,1.88,1.54,3.39,3.42,3.42,1.89,0,3.42-1.54,3.42-3.42v-16.84h22.58v16.84c0,1.89,1.54,3.42,3.42,3.42"></path><path class="cls-1" d="M204.61,23.52c.73-1.64,0-3.56-1.64-4.29-.03-.01-.05-.02-.08-.04-1.68-.75-3.66,0-4.41,1.69,0,.01-.01,.02-.02,.04l-14.21,33.11-14.17-33.03c-.75-1.75-2.77-2.57-4.52-1.82,0,0-.02,0-.03,.01-1.72,.73-2.52,2.71-1.8,4.43,0,.01,.01,.03,.02,.04l17.28,40.16c.75,1.74,2.77,2.55,4.51,1.8,.81-.35,1.45-.99,1.8-1.8l17.26-40.3Z"></path><path class="cls-1" d="M153.72,65.89c1.89,0,3.42-1.54,3.42-3.42V22.34c0-1.89-1.54-3.42-3.43-3.42-1.89,0-3.42,1.53-3.42,3.42V62.47c0,1.89,1.54,3.42,3.42,3.42"></path><path class="cls-1" d="M82.21,41.32c1.88-.29,2.59-.38,3.62-.74,1.63-.47,2.56-2.18,2.09-3.8-.29-1.01-1.08-1.8-2.09-2.09-1.02-.31-2.52-.06-3.62,.04l-33.75,3.4c-2.87,.29-5.76,.29-8.62,0l-33.71-3.4c-1.09-.11-2.61-.36-3.62-.04-1.63,.47-2.56,2.18-2.09,3.8,.29,1.01,1.08,1.8,2.09,2.09,1.18,.36,2.39,.61,3.62,.74l32.26,5.18c3.83,.61,7.72,.61,11.55,0l32.28-5.18Z"></path><path class="cls-1" d="M76.29,25.79c1.22-.02,2.43-.16,3.62-.41,1.63-.47,2.56-2.18,2.09-3.8-.29-1.01-1.08-1.8-2.09-2.09-1.03-.31-2.52-.27-3.62-.27H12.05c-1.1,0-2.59-.04-3.62,.27-1.63,.47-2.57,2.17-2.1,3.8,.29,1.01,1.08,1.8,2.09,2.1,1.19,.25,2.41,.39,3.63,.41l28.55,2.03c2.37,.15,4.74,.15,7.11,0l28.59-2.03Z"></path><path class="cls-1" d="M54.22,1.07c-6.69-.76-13.45-.76-20.15,0l-10.03,1.14c-1.08,.11-2.61,.2-3.62,.51-1.31,.39-2.2,1.59-2.21,2.95,0,1.37,.9,2.57,2.21,2.95,1.03,.29,2.55,.27,3.62,.27h40.25c1.07,0,2.59,.02,3.62-.27,1.32-.37,2.22-1.58,2.22-2.95,0-1.36-.91-2.56-2.21-2.95-1.01-.31-2.55-.41-3.62-.51l-10.08-1.14Z"></path><path class="cls-1" d="M37.52,65.09c4.37,1.07,8.93,1.07,13.29,0l29.29-7.19c1.85-.45,2.59-.6,3.62-.94,1.31-.38,2.21-1.58,2.21-2.95,0-1.37-.9-2.58-2.21-2.97-1.03-.29-2.55,.09-3.62,.29l-31.67,5.65c-2.82,.49-5.71,.49-8.53,0l-31.63-5.65c-1.07-.2-2.59-.58-3.62-.29-1.31,.39-2.21,1.6-2.21,2.97,0,1.37,.9,2.57,2.21,2.95,1.03,.34,1.76,.5,3.62,.94l29.24,7.19Z"></path><path class="cls-1" d="M71.38,76.87c1.23-.39,2.44-.84,3.62-1.36,1.25-.56,2.21-1.43,2.21-2.99,0-1.37-.9-2.58-2.21-2.97-1.16-.33-2.57,.16-3.62,.45l-19.81,5.33c-4.86,1.31-9.97,1.31-14.83,0l-19.79-5.33c-1.05-.29-2.44-.78-3.62-.45-1.31,.39-2.21,1.6-2.21,2.97,0,1.56,.96,2.44,2.21,2.99,1.18,.52,2.39,.98,3.62,1.36l18.79,6.54c5.45,1.9,11.37,1.9,16.82,0l18.83-6.54Z"></path></svg> 